<?xml version="1.0" encoding="utf-8"?>
<!-- Generator: Adobe Illustrator 25.2.3, SVG Export Plug-In . SVG Version: 6.00 Build 0)  -->
<svg version="1.1" id="Layer_1" xmlns="http://www.w3.org/2000/svg" xmlns:xlink="http://www.w3.org/1999/xlink" x="0px" y="0px"
	 viewBox="0 0 33 33" style="enable-background:new 0 0 33 33;" xml:space="preserve">
<path d="M29.3,27.9l-7.4-7.4c3.3-4.1,3.1-10.1-0.7-13.9c-2-2-4.5-3-7.3-3s-5.3,1.1-7.3,3c-4,4-4,10.6,0,14.6c2,2,4.5,3,7.3,3
	c2.4,0,4.7-0.8,6.6-2.4l7.4,7.4L29.3,27.9z M8,19.8C4.8,16.6,4.8,11.3,8,8c1.6-1.5,3.7-2.4,5.9-2.4s4.3,0.9,5.9,2.4
	c3.2,3.2,3.2,8.5,0,11.8c-1.6,1.6-3.7,2.4-5.9,2.4S9.6,21.4,8,19.8z"/>
</svg>
